<svg width="82" height="192" viewBox="0 0 82 192" fill="none" xmlns="http://www.w3.org/2000/svg">
<rect x="35" y="117" width="11" height="75" fill="#4F4915"/>
<path d="M42.3032 2.60241L41.5 1.98993V3V125V125.557L42.0534 125.497C49.1755 124.732 59.6817 121.982 68.0613 116.193C76.4618 110.39 82.7559 101.502 81.2865 88.5258C80.7262 83.5774 80.385 78.8654 80.0541 74.2955C79.8523 71.5097 79.6544 68.7767 79.4131 66.0751C78.7776 58.9634 77.8435 52.1232 75.7423 45.3024C71.5324 31.6371 62.6618 18.127 42.3032 2.60241Z" fill="#00822B" stroke="#00822B"/>
<path d="M39.6968 2.60241L40.5 1.98993V3V125V125.557L39.9466 125.497C32.8245 124.732 22.3183 121.982 13.9387 116.193C5.53815 110.39 -0.755852 101.502 0.713486 88.5258C1.27382 83.5774 1.61502 78.8654 1.94593 74.2955C2.14766 71.5097 2.34555 68.7767 2.58694 66.0751C3.22239 58.9634 4.15648 52.1232 6.25775 45.3024C10.4676 31.6371 19.3382 18.127 39.6968 2.60241Z" fill="#026734" stroke="#026734"/>
</svg>
