<svg width="1440" height="1024" viewBox="0 0 1440 1024" fill="none" xmlns="http://www.w3.org/2000/svg">
<g clip-path="url(#clip0_2_5)">
<rect width="1440" height="1024" fill="#8EC9E9"/>
<path d="M72.8521 251.6L151.405 107.365L223.839 292.039L270.301 412.684L1.78814e-07 393.237L72.8521 251.6Z" fill="#7DBEEB"/>
<path d="M218.852 369.6L297.405 225.365L306.5 296.5L369.839 410.039L416.301 530.684L146 511.237L218.852 369.6Z" fill="#7DBEEB"/>
<path d="M613.54 237.23L706 154.5L823.379 292.769L869.841 413.414L506.54 379.73L529.54 292.769L613.54 237.23Z" fill="#7DBEEB"/>
<path d="M1243.75 331.336L1289.52 173.604L1399.9 338.43L1471.17 446.292L1202.99 485.308L1243.75 331.336Z" fill="#7DBEEB"/>
<path d="M447 311.5C623 290.52 729.5 307.5 892.5 334L1057 498H359C381.209 394.383 386.71 318.687 447 311.5Z" fill="#7F946B"/>
<path d="M74 184L352.5 329L580 520H74V184Z" fill="#7F946B"/>
<rect y="498" width="1440" height="526" fill="#06A14D"/>
<path d="M0 287L129 351.5L349 498H0V287Z" fill="#98C00A"/>
<path d="M1121.5 388L1271.5 303.5L1440 247V498H1004L1121.5 388Z" fill="#98C00A"/>
<circle cx="1292.19" cy="77.6705" r="54.1882" fill="white"/>
<circle cx="1388.4" cy="94.2588" r="37.6" fill="white"/>
<circle cx="1350.8" cy="47.8118" r="39.8118" fill="white"/>
<rect x="1291.08" y="83.2" width="99.5294" height="48.6588" fill="white"/>
<circle cx="955.218" cy="135.994" r="41.2176" fill="white"/>
<circle cx="1028.4" cy="148.612" r="28.6" fill="white"/>
<circle cx="999.8" cy="113.282" r="30.2824" fill="white"/>
<rect x="954.376" y="140.2" width="75.7059" height="37.0118" fill="white"/>
<circle cx="276.643" cy="77" r="29" fill="white"/>
<circle cx="224.857" cy="81.1429" r="24.8571" fill="white"/>
<rect x="224.857" y="81.1428" width="53.8571" height="24.8571" fill="white"/>
<circle cx="633.643" cy="59" r="29" fill="white"/>
<circle cx="581.857" cy="63.1429" r="24.8571" fill="white"/>
<rect x="581.857" y="63.1428" width="53.8571" height="24.8571" fill="white"/>
<circle cx="17.8431" cy="17.8431" r="17.8431" transform="matrix(-1 0 0 1 460.686 104)" fill="white"/>
<circle cx="15.2941" cy="15.2941" r="15.2941" transform="matrix(-1 0 0 1 490 109.098)" fill="white"/>
<rect width="33.1372" height="15.2941" transform="matrix(-1 0 0 1 474.706 124.392)" fill="white"/>
<rect x="314" y="478" width="11" height="75" fill="#4F4915"/>
<path d="M320.5 486V486.557L321.053 486.497C328.176 485.732 338.682 482.982 347.061 477.193C355.462 471.39 361.756 462.502 360.287 449.526C359.726 444.577 359.385 439.865 359.054 435.296C358.852 432.51 358.654 429.777 358.413 427.075C357.778 419.963 356.844 413.123 354.742 406.302C350.532 392.637 341.662 379.127 321.303 363.602L320.5 362.99V364V486Z" fill="#00822B" stroke="#00822B"/>
<path d="M319.5 486V486.557L318.947 486.497C311.824 485.732 301.318 482.982 292.939 477.193C284.538 471.39 278.244 462.502 279.713 449.526C280.274 444.577 280.615 439.865 280.946 435.296C281.148 432.51 281.346 429.777 281.587 427.075C282.222 419.963 283.156 413.123 285.258 406.302C289.468 392.637 298.338 379.127 318.697 363.602L319.5 362.99V364V486Z" fill="#026734" stroke="#026734"/>
<rect x="1114" y="466" width="11" height="75" fill="#4F4915"/>
<path d="M1120.5 474V474.557L1121.05 474.497C1128.18 473.732 1138.68 470.982 1147.06 465.193C1155.46 459.39 1161.76 450.502 1160.29 437.526C1159.73 432.577 1159.38 427.865 1159.05 423.296C1158.85 420.51 1158.65 417.777 1158.41 415.075C1157.78 407.963 1156.84 401.123 1154.74 394.302C1150.53 380.637 1141.66 367.127 1121.3 351.602L1120.5 350.99V352V474Z" fill="#00822B" stroke="#00822B"/>
<path d="M1119.5 474V474.557L1118.95 474.497C1111.82 473.732 1101.32 470.982 1092.94 465.193C1084.54 459.39 1078.24 450.502 1079.71 437.526C1080.27 432.577 1080.62 427.865 1080.95 423.296C1081.15 420.51 1081.35 417.777 1081.59 415.075C1082.22 407.963 1083.16 401.123 1085.26 394.302C1089.47 380.637 1098.34 367.127 1118.7 351.602L1119.5 350.99V352V474Z" fill="#026734" stroke="#026734"/>
<rect x="516" y="460" width="11" height="102" fill="#4F4915"/>
<path d="M522 302V467.729C534.748 469.521 561.666 463.25 567.358 423.833C573.05 384.417 539.491 326.187 522 302Z" fill="#C8D602" stroke="#C9D700"/>
<path d="M521 302V467.729C508.252 469.521 481.334 463.25 475.642 423.833C469.95 384.417 503.509 326.187 521 302Z" fill="#A9BD01" stroke="#A9BD03"/>
</g>
<defs>
<clipPath id="clip0_2_5">
<rect width="1440" height="1024" fill="white"/>
</clipPath>
</defs>
</svg>
